<svg version="1" xmlns="http://www.w3.org/2000/svg" width="1074.667" height="1074.667" viewBox="0 0 806.000000 806.000000"><path d="M0 352.5V705h17.5L68 755.5l50.5 50.5h565l50.5-50.5 50.5-50.5H806V0H0v352.5zM106.2 52.6c99.7 37.2 186.7 69.6 257 95.8 23 8.6 42.1 15.6 42.5 15.6.5 0 15-5.4 32.3-12.1C589.7 93.7 749.4 32.3 767.4 25.4c12-4.7 22-8.3 22.1-8.2.5.6-65.6 102.4-67.2 103.5-1.6 1-25 9.2-156.3 54.3-15.7 5.4-43.3 14.9-61.5 21.1l-33 11.4 152.6.5 152.7.5-34 36.2-34 36.3h-348c-335.8 0-347.9-.1-346.6-1.8.7-1 13.9-17.7 29.3-37l28-35.2H82c13.7 0 245.3-3.9 250.5-4.3 3.1-.1-6.9-3.6-45.5-15.6-175.5-54.6-212.5-66.2-213-66.8-.4-.5-13.9-22.2-30-48.3-16.1-26.1-30.4-49.2-31.7-51.3-1.3-2-2.1-3.7-1.9-3.7.2 0 43.3 16 95.8 35.6zM790 368.8v160.8L674.3 641.3 558.5 752.9l-47.9.1h-48l3.2-3.3c1.7-1.7 52.8-50.9 113.5-109.2l110.4-106-80.4-.3-80.3-.2V365.4l42.3-38.8 42.2-38.7.3 86.5.2 86.6H713.7l.6-27.3c.4-14.9 1-54 1.3-86.7.4-32.7 1-60.4 1.4-61.5.5-1.5 71.4-76.9 72.8-77.4.1-.1.2 72.3.2 160.7zm-462-70.1c-6.2 6-23.5 22.4-38.4 36.5l-27.1 25.7-29.7.1H203l-.2 196-.3 196.1-36.2-33.3-36.1-33.3-.1-162.8L130 361H71.2L43 325.7c-15.6-19.3-28.8-35.8-29.3-36.5-.8-.9 31.9-1.2 162.4-1.2h163.3L328 298.7zm273-10.3c0 .2-17.8 16.7-39.5 36.6L522 361.3l-.1 152.6c-.1 83.9-.4 157.2-.8 162.9l-.6 10.3L486 720l-34.5 32.8-.3-112.4L451 528H346.2l-.4 79.1-.3 79-4.5 4.2c-4.7 4.4-54.9 50.9-63.2 58.6l-4.8 4.4V360.2l39.8-36.1 39.7-36.1h124.3c68.3 0 124.2.2 124.2.4z"/><path d="M346 408v47h105v-94H346v47z"/></svg>