<svg xmlns="http://www.w3.org/2000/svg" viewBox="0 0 115.17 108.76">
  <path class="a" d="M50.61,40.08H87.34L75.63,50.85l-.11,48-10.4,9.91,0-33.23-15.57,0L49.5,98.85l-10.68,9.91v-58M49.58,64.8l15.57,0v-14H49.58Z"/>
  <polyline class="k" points="9.49 15.33 0 0 58.42 21.78 115.17 0 105.32 15.33 67.84 28.21 113.21 28.3 103.13 39.05 0.38 38.97 9.03 28.15 48.54 27.49"/>
  <polyline class="y" points="100.58 76.31 76.65 76.31 76.65 51.53 89.12 40.08 89.12 65.6 104.04 65.6 104.41 39.55 115.17 28.3 115.17 75.75 80.92 108.76 66.82 108.76"/>
  <polygon class="t" points="17.71 98.85 17.71 50.84 9.03 50.84 0.38 40.08 48.54 40.08 37.19 50.84 28.42 50.84 28.42 108.76 17.71 98.85"/>
</svg>
